<?xml version="1.0" encoding="UTF-8"?>
<!DOCTYPE svg PUBLIC "-//W3C//DTD SVG 1.1//EN" "http://www.w3.org/Graphics/SVG/1.1/DTD/svg11.dtd">
<!-- Creator: CorelDRAW -->
<svg xmlns="http://www.w3.org/2000/svg" xml:space="preserve" width="1.70666in" height="1.70666in" version="1.1" style="shape-rendering:geometricPrecision; text-rendering:geometricPrecision; image-rendering:optimizeQuality; fill-rule:evenodd; clip-rule:evenodd"
viewBox="0 0 1707 1707"
 xmlns:xlink="http://www.w3.org/1999/xlink">
 <defs>
  <style type="text/css">
   <![CDATA[
    .fil4 {fill:#1AA1FF}
    .fil0 {fill:#333333}
    .fil1 {fill:#C06000}
    .fil2 {fill:#FFA721}
    .fil3 {fill:#FFE4AF}
   ]]>
  </style>
 </defs>
 <g id="Layer_x0020_1">
  <metadata id="CorelCorpID_0Corel-Layer"/>
  <path class="fil0" d="M1530 971l-58 -51c-19,10 -44,10 -63,0l-58 51 179 0zm34 710l-1422 0c-78,0 -141,-63 -141,-141l0 -1373c0,-78 63,-141 141,-141l1422 0c78,0 142,63 142,141l0 1373c0,78 -64,141 -142,141zm-1194 -46l1194 0c53,0 95,-43 95,-95l0 -1373c0,-52 -42,-95 -95,-95l-1194 0 0 1563zm-228 -1563c-52,0 -95,42 -95,95l0 1373c0,52 43,95 95,95l182 0 0 -1563 -182 0zm44 1410c-13,0 -24,-10 -24,-23l0 -1211c0,-30 47,-30 47,0l0 1211c0,13 -11,23 -23,23zm828 -902c-22,-4 -107,-32 -116,-28 -29,14 -105,51 -157,-18 -22,-30 -42,-101 -60,-106l-103 -27c-10,-3 -18,9 -13,17 1,2 3,5 7,6l91 24c24,7 27,62 66,108 68,80 156,21 177,21 12,0 150,40 174,46 5,1 9,4 13,9 74,98 150,83 226,22 12,-8 26,-23 41,-19l91 24c15,5 22,-19 7,-23 -26,-7 -91,-26 -106,-28 -42,-3 -135,163 -247,0 -5,-8 -78,-24 -91,-28zm-85 -71c-9,-52 32,-102 86,-102 75,0 113,88 66,143 24,6 48,10 63,32 89,132 136,-42 223,-18l50 13c0,-34 47,-34 47,-3l0 16c69,18 62,106 0,116l0 91c34,13 53,54 39,88l102 91c5,4 9,11 9,19 0,95 -78,173 -174,173 -95,0 -173,-78 -173,-173 0,-8 3,-15 9,-19l102 -91c-14,-34 5,-75 39,-88l0 -98 -58 -16c-43,32 -93,67 -152,67 -49,0 -95,-23 -135,-70l14 314c56,0 55,24 55,71 0,23 -18,41 -41,41l-13 0 0 94 100 0c51,0 92,40 92,91l0 68c-1,12 -11,23 -24,23l-481 0c-13,0 -23,-11 -23,-23l0 -68c0,-51 41,-91 91,-91l101 0 0 -94c-56,0 -55,-26 -55,-71 0,-22 19,-41 41,-41l15 0 16 -355 -52 -14c-89,36 -163,23 -215,-38 -29,-34 -38,-61 -53,-96l-28 -8 0 88c35,12 54,53 40,88 16,14 100,86 107,97 21,32 -27,186 -170,186 -96,0 -174,-78 -174,-173 0,-8 4,-14 9,-19l102 -91c-13,-35 5,-76 40,-88l0 -100c-70,-19 -62,-107 0,-117 0,-42 46,-35 46,-6l0 14c21,5 78,17 95,27 71,41 35,187 170,121 18,-8 34,-5 52,-1zm91 25c49,-7 45,-81 -5,-81 -47,0 -49,61 -25,73l30 8zm4 122l-18 -4 -15 342 48 0 -15 -338zm-58 403l129 0 0 -18 -160 0 0 18 31 0zm74 141l0 -94 -51 0 0 94 51 0zm60 -159l0 0zm-302 294l434 0 0 -44c0,-25 -20,-45 -45,-45l-345 0c-24,0 -44,20 -44,45l0 44zm681 -1093l-928 0c-30,0 -30,-46 0,-46l928 0c30,0 30,46 0,46zm0 1269l-928 0c-30,0 -30,-47 0,-47l928 0c30,0 30,47 0,47zm-890 -809c-11,0 -22,-3 -32,-8l-57 51 179 0 -58 -51c-9,5 -20,8 -32,8zm0 -89c-28,0 -26,42 0,42 27,0 27,-42 0,-42zm-125 179c26,137 225,137 250,0l-250 0zm992 82c12,-12 2,-35 -16,-35 -27,0 -27,42 0,42 7,0 12,-2 16,-7zm-141 144c26,137 225,137 250,0l-250 0z"/>
  <path class="fil1" d="M1020 534c49,-7 45,-81 -5,-81 -47,0 -49,61 -25,73l30 8z"/>
  <path class="fil2" d="M1014 580c-22,-4 -107,-32 -116,-28 -29,14 -105,51 -157,-18 -22,-30 -42,-101 -60,-106l-103 -27c-10,-3 -18,9 -13,17 1,2 3,5 7,6l91 24c24,7 27,62 66,108 68,80 156,21 177,21 12,0 150,40 174,46 5,1 9,4 13,9 74,98 150,83 226,22 12,-8 26,-23 41,-19l91 24c15,5 22,-19 7,-23 -26,-7 -91,-26 -106,-28 -42,-3 -135,163 -247,0 -5,-8 -78,-24 -91,-28z"/>
  <path class="fil1" d="M1440 839c-27,0 -27,42 0,42 7,0 12,-2 16,-7 12,-12 2,-35 -16,-35z"/>
  <path class="fil2" d="M1565 1018l-250 0c26,137 225,137 250,0z"/>
  <polygon class="fil1" points="1040,1200 1040,1106 989,1106 989,1200 "/>
  <polygon class="fil2" points="966,1059 1095,1059 1095,1041 935,1041 935,1059 "/>
  <polygon class="fil1" points="991,994 1039,994 1024,656 1006,652 "/>
  <path class="fil1" d="M589 655c27,0 27,-42 0,-42 -28,0 -26,42 0,42z"/>
  <path class="fil3" d="M621 694c-9,5 -20,8 -32,8 -11,0 -22,-3 -32,-8l-57 51 179 0 -58 -51z"/>
  <path class="fil2" d="M714 792l-250 0c26,137 225,137 250,0z"/>
  <path class="fil3" d="M759 756c21,32 -27,186 -170,186 -96,0 -174,-78 -174,-173 0,-8 4,-14 9,-19l102 -91c-13,-35 5,-76 40,-88l0 -100c-70,-19 -62,-107 0,-117 0,-42 46,-35 46,-6l0 14c21,5 78,17 95,27 71,41 35,187 170,121 18,-8 34,-5 52,-1 -9,-52 32,-102 86,-102 75,0 113,88 66,143 24,6 48,10 63,32 89,132 136,-42 223,-18l50 13c0,-34 47,-34 47,-3l0 16c69,18 62,106 0,116l0 91c34,13 53,54 39,88l102 91c5,4 9,11 9,19 0,95 -78,173 -174,173 -95,0 -173,-78 -173,-173 0,-8 3,-15 9,-19l102 -91c-14,-34 5,-75 39,-88l0 -98 -58 -16c-43,32 -93,67 -152,67 -49,0 -95,-23 -135,-70l14 314c56,0 55,24 55,71 0,23 -18,41 -41,41l-13 0 0 94 100 0c51,0 92,40 92,91l0 68c-1,12 -11,23 -24,23l-481 0c-13,0 -23,-11 -23,-23l0 -68c0,-51 41,-91 91,-91l101 0 0 -94c-56,0 -55,-26 -55,-71 0,-22 19,-41 41,-41l15 0 16 -355 -52 -14c-89,36 -163,23 -215,-38 -29,-34 -38,-61 -53,-96l-28 -8 0 88c35,12 54,53 40,88 16,14 100,86 107,97zm-208 708l928 0c30,0 30,47 0,47l-928 0c-30,0 -30,-47 0,-47zm-181 171l1194 0c53,0 95,-43 95,-95l0 -1373c0,-52 -42,-95 -95,-95l-1194 0 0 1563zm1109 -1393l-928 0c-30,0 -30,-46 0,-46l928 0c30,0 30,46 0,46z"/>
  <path class="fil3" d="M1409 920l-58 51 179 0 -58 -51c-19,10 -44,10 -63,0z"/>
  <path class="fil1" d="M1187 1246l-345 0c-24,0 -44,20 -44,45l0 44 434 0 0 -44c0,-25 -20,-45 -45,-45z"/>
  <path class="fil4" d="M324 1635l0 -1563 -182 0c-52,0 -95,42 -95,95l0 1373c0,52 43,95 95,95l182 0zm-115 -1387l0 1211c0,13 -11,23 -23,23 -13,0 -24,-10 -24,-23l0 -1211c0,-30 47,-30 47,0z"/>
 </g>
</svg>
